<?xml version="1.0" standalone="no"?><!DOCTYPE svg PUBLIC "-//W3C//DTD SVG 1.1//EN" "http://www.w3.org/Graphics/SVG/1.1/DTD/svg11.dtd"><svg t="1653817784113" class="icon" viewBox="0 0 1024 1024" version="1.1" xmlns="http://www.w3.org/2000/svg" p-id="9265" xmlns:xlink="http://www.w3.org/1999/xlink" width="200" height="200"><defs><style type="text/css"></style></defs><path d="M896 426.666667h-85.333333V170.666667h42.666666V85.333333H170.666667v85.333334h42.666666v256H128a42.666667 42.666667 0 0 0-42.666667 42.666666v384h853.333334v-384a42.666667 42.666667 0 0 0-42.666667-42.666666z m-298.666667 341.333333v-170.666667h-170.666666v170.666667H298.666667V170.666667h426.666666v597.333333h-128z" p-id="9266" fill="#8a8a8a"></path><path d="M384 256h85.333333v85.333333H384z m170.666667 0h85.333333v85.333333h-85.333333z m-170.666667 170.666667h85.333333v85.333333H384z m170.666667 0h85.333333v85.333333h-85.333333z" p-id="9267" fill="#8a8a8a"></path></svg>