<?xml version="1.0" standalone="no"?><!DOCTYPE svg PUBLIC "-//W3C//DTD SVG 1.1//EN" "http://www.w3.org/Graphics/SVG/1.1/DTD/svg11.dtd"><svg t="1653930348876" class="icon" viewBox="0 0 1024 1024" version="1.1" xmlns="http://www.w3.org/2000/svg" p-id="4051" xmlns:xlink="http://www.w3.org/1999/xlink" width="200" height="200"><defs><style type="text/css"></style></defs><path d="M311.637333 726.357333c-6.855111-6.855111-16.668444-15.985778-24.519111-24.149333C288.056889 725.361778 311.637333 726.357333 311.637333 726.357333zM311.637333 406.869333c62.037333-187.278222 211.228444-233.528889 211.228444-233.528889s-84.167111-27.079111-193.962667-34.332444C241.749333 133.262222 124.359111 151.751111 124.359111 151.751111S93.923556 475.761778 280.689778 695.182222c1.848889 2.190222 4.096 4.579556 6.456889 7.025778 0-0.170667-0.056889-0.256-0.056889-0.426667C285.44 640.398222 276.081778 514.190222 311.637333 406.869333zM899.356444 688.440889c-8.647111-90.595556-34.218667-183.153778-34.218667-183.153778s-50.602667 133.376-209.408 196.494222c-115.569778 45.966222-253.582222 50.801778-318.890667 49.152 218.766222 185.344 549.432889 162.702222 549.432889 162.702222S908.288 782.051556 899.356444 688.440889zM311.637333 726.357333c0 0-0.881778 23.921778 24.576 24.576 0.199111 0 0.426667 0 0.625778 0-1.223111-1.052444-2.503111-1.991111-3.726222-3.043556C323.868444 739.953778 320.398222 735.175111 311.637333 726.357333zM308.309333 717.511111c0 0 285.070222 44.316444 454.343111-124.131556 169.272889-168.448 123.591111-441.628444 123.591111-441.628444S586.723556 112.412444 433.038222 265.358222C279.352889 418.304 308.309333 717.511111 308.309333 717.511111z" p-id="4052" fill="#ffffff"></path></svg>